<?xml version="1.0" encoding="UTF-8" ?>
<!DOCTYPE svg PUBLIC "-//W3C//DTD SVG 1.1//EN" "http://www.w3.org/Graphics/SVG/1.1/DTD/svg11.dtd">
<svg width="20pt" height="20pt" viewBox="0 0 500 500" version="1.1" xmlns="http://www.w3.org/2000/svg">
<g id="#ffffffff">
<path fill="#ffffff" opacity="1.00" d=" M 332.89 60.39 C 344.00 58.81 355.38 57.27 366.53 59.26 C 372.58 60.85 378.94 62.46 384.09 66.10 C 387.46 69.67 391.06 73.84 391.16 78.99 C 391.11 82.20 388.08 83.60 385.46 84.41 C 329.83 102.85 274.54 122.70 221.40 147.53 C 219.37 148.62 216.87 149.69 216.14 152.09 C 215.80 153.79 216.82 155.39 217.04 157.05 C 216.82 159.17 215.70 161.05 214.83 162.95 C 204.64 183.42 194.47 203.89 184.27 224.35 C 183.34 226.35 182.23 228.40 182.32 230.67 C 182.90 232.45 184.60 231.14 185.73 230.75 C 188.36 229.27 191.25 228.40 194.07 227.36 C 197.53 225.98 201.05 224.75 204.62 223.65 C 216.24 219.46 228.04 215.78 239.88 212.24 C 245.86 210.44 251.88 208.69 258.07 207.76 C 260.33 207.55 262.72 207.23 264.89 208.13 C 273.68 211.52 282.68 214.66 290.99 219.08 C 292.90 221.41 296.07 223.52 295.40 226.98 C 294.02 231.10 289.81 233.38 286.01 234.93 C 251.28 248.98 216.66 263.30 181.69 276.73 C 175.72 279.10 169.42 280.47 163.29 282.33 C 156.72 284.98 153.77 291.95 151.23 298.04 C 141.36 324.57 131.50 351.11 121.67 377.66 C 121.08 379.92 119.89 382.54 121.31 384.74 C 124.80 384.95 126.65 381.12 129.88 380.31 C 133.54 378.63 137.21 376.99 140.88 375.33 C 173.88 360.32 208.69 349.51 244.04 341.63 C 248.07 341.10 251.99 339.80 256.09 339.82 C 268.83 339.27 280.77 344.73 291.90 350.30 C 292.33 350.57 293.18 351.12 293.61 351.39 C 293.85 351.40 294.34 351.41 294.58 351.42 C 298.71 356.82 307.62 357.88 309.85 365.02 C 309.32 367.32 306.55 367.81 304.68 368.64 C 253.57 384.12 202.38 399.55 152.38 418.39 C 144.30 421.99 135.43 423.94 126.57 423.67 C 124.87 423.07 123.12 422.64 121.41 422.12 C 118.82 420.94 116.30 417.83 113.21 419.17 C 108.69 420.47 109.59 428.38 103.99 427.39 C 97.17 425.80 91.23 421.39 86.88 416.01 C 81.27 408.58 81.37 398.62 82.93 389.86 C 85.33 369.64 91.89 350.24 98.40 331.05 C 102.95 318.48 108.46 306.27 115.11 294.68 C 116.05 293.15 116.58 289.49 114.05 289.30 C 110.78 289.68 107.52 290.41 104.20 290.15 C 99.94 289.67 95.85 286.73 94.69 282.49 C 93.35 279.01 96.25 275.83 98.64 273.67 C 104.31 269.10 110.85 265.78 117.02 261.95 C 121.04 259.70 124.79 256.94 129.05 255.14 C 133.80 252.33 135.85 246.93 138.21 242.23 C 148.42 224.22 158.38 206.03 169.78 188.73 C 172.30 184.84 174.65 180.78 177.88 177.41 C 179.80 174.82 182.74 172.46 182.87 169.01 C 181.39 168.18 179.77 168.67 178.33 169.32 C 152.29 182.03 125.48 193.75 97.09 200.10 C 88.49 202.39 79.52 203.21 70.65 202.52 L 69.34 203.49 L 69.52 202.55 C 67.02 202.82 64.86 201.23 62.58 200.49 C 58.47 198.59 53.35 197.23 51.40 192.68 C 49.79 187.10 53.26 181.65 57.45 178.27 C 71.52 167.42 85.47 156.40 99.58 145.61 C 102.86 143.09 107.18 143.62 110.54 145.69 C 115.63 148.58 120.54 144.14 124.95 141.97 C 155.09 124.15 186.04 107.53 218.51 94.33 C 228.64 89.93 239.15 86.49 249.49 82.61 C 276.79 73.53 304.43 65.04 332.89 60.39 Z" />
</g>
<g id="#000000ff">
<path fill="#000000" opacity="1.00" d=" M 244.27 0.00 L 251.75 0.00 C 285.21 0.89 318.58 8.11 349.09 21.96 C 411.14 49.82 460.56 104.46 481.73 169.14 C 488.79 190.07 492.96 211.99 494.07 234.04 C 494.29 247.71 494.59 261.44 492.88 275.03 C 488.43 314.84 474.13 353.50 451.55 386.59 C 430.09 418.01 401.16 444.32 367.95 462.86 C 331.62 483.52 289.83 494.53 248.03 494.24 C 208.59 494.71 169.01 485.27 134.08 466.92 C 105.59 452.35 80.13 431.99 59.20 407.80 C 22.07 364.70 1.05 308.37 0.00 251.55 L 0.00 245.22 C 0.40 202.37 12.09 159.67 33.78 122.71 C 53.51 88.78 81.53 59.74 114.64 38.68 C 153.02 13.80 198.65 0.82 244.27 0.00 M 332.89 60.39 C 304.43 65.04 276.79 73.53 249.49 82.61 C 239.15 86.49 228.64 89.93 218.51 94.33 C 186.04 107.53 155.09 124.15 124.95 141.97 C 120.54 144.14 115.63 148.58 110.54 145.69 C 107.18 143.62 102.86 143.09 99.58 145.61 C 85.47 156.40 71.52 167.42 57.45 178.27 C 53.26 181.65 49.79 187.10 51.40 192.68 C 53.35 197.23 58.47 198.59 62.58 200.49 C 64.86 201.23 67.02 202.82 69.52 202.55 L 69.34 203.49 C 71.50 204.35 73.63 205.29 75.81 206.08 C 84.72 210.94 95.39 209.79 105.07 208.53 C 123.27 204.86 141.11 199.37 158.26 192.26 C 161.89 190.87 165.37 189.08 169.06 187.84 L 169.78 188.73 C 158.38 206.03 148.42 224.22 138.21 242.23 C 135.85 246.93 133.80 252.33 129.05 255.14 C 124.79 256.94 121.04 259.70 117.02 261.95 C 110.85 265.78 104.31 269.10 98.64 273.67 C 96.25 275.83 93.35 279.01 94.69 282.49 C 95.85 286.73 99.94 289.67 104.20 290.15 C 107.57 292.33 111.56 292.92 115.11 294.68 C 108.46 306.27 102.95 318.48 98.40 331.05 C 91.89 350.24 85.33 369.64 82.93 389.86 C 81.37 398.62 81.27 408.58 86.88 416.01 C 91.23 421.39 97.17 425.80 103.99 427.39 C 106.87 429.04 110.15 429.82 113.07 431.39 C 115.64 433.31 118.89 434.00 122.03 434.29 C 125.20 432.16 125.30 427.31 128.99 425.52 C 130.71 425.88 132.42 426.31 134.05 427.01 C 136.76 429.39 140.54 430.20 144.03 430.53 C 152.55 430.27 161.08 428.46 168.91 425.09 C 216.69 407.15 265.54 392.23 314.37 377.48 C 318.26 376.18 322.91 375.52 325.63 372.16 C 324.35 367.26 319.23 365.16 315.53 362.36 C 313.32 361.28 311.44 358.80 308.77 359.27 C 308.59 358.93 308.24 358.24 308.07 357.90 C 303.24 356.62 299.46 352.67 294.58 351.42 C 294.34 351.41 293.85 351.40 293.61 351.39 C 293.18 351.12 292.33 350.57 291.90 350.30 C 280.77 344.73 268.83 339.27 256.09 339.82 C 251.99 339.80 248.07 341.10 244.04 341.63 C 208.69 349.51 173.88 360.32 140.88 375.33 C 149.21 351.94 158.13 328.75 166.68 305.44 C 169.24 299.10 172.20 291.79 179.05 289.06 C 185.17 287.22 191.44 285.83 197.41 283.48 C 233.03 269.77 268.33 255.24 303.69 240.85 C 307.57 239.34 312.34 235.77 310.88 231.01 C 308.31 226.24 302.93 223.65 297.96 222.12 C 295.76 220.90 293.53 219.44 290.99 219.08 C 282.68 214.66 273.68 211.52 264.89 208.13 C 262.72 207.23 260.33 207.55 258.07 207.76 C 251.88 208.69 245.86 210.44 239.88 212.24 C 228.04 215.78 216.24 219.46 204.62 223.65 C 204.57 223.31 204.47 222.62 204.41 222.28 C 213.16 204.75 221.92 187.22 230.68 169.70 C 231.52 167.90 232.34 166.07 232.78 164.12 C 232.75 162.36 231.48 160.78 231.81 158.99 C 232.48 156.45 235.13 155.35 237.23 154.22 C 289.94 129.60 344.76 109.85 399.95 91.58 C 402.38 90.75 405.18 89.90 406.44 87.44 C 407.54 85.41 406.56 83.15 405.74 81.23 C 403.35 75.09 397.58 70.02 391.02 69.06 C 388.94 67.69 386.61 66.36 384.09 66.10 C 378.94 62.46 372.58 60.85 366.53 59.26 C 355.38 57.27 344.00 58.81 332.89 60.39 Z" />
</g>
<g id="#a6a6a6ff">
<path fill="#a6a6a6" opacity="1.00" d=" M 384.09 66.10 C 386.61 66.36 388.94 67.69 391.02 69.06 C 394.84 72.48 398.49 76.77 399.09 82.05 C 399.26 85.48 395.51 86.93 392.83 87.84 C 350.20 101.96 307.82 116.95 266.40 134.32 C 253.37 139.78 240.47 145.55 227.80 151.79 C 225.57 152.85 223.02 155.12 224.21 157.87 C 225.06 159.86 225.05 161.96 223.92 163.85 C 213.55 185.08 202.80 206.13 192.47 227.38 L 194.07 227.36 C 191.25 228.40 188.36 229.27 185.73 230.75 C 184.60 231.14 182.90 232.45 182.32 230.67 C 182.23 228.40 183.34 226.35 184.27 224.35 C 194.47 203.89 204.64 183.42 214.83 162.95 C 215.70 161.05 216.82 159.17 217.04 157.05 C 216.82 155.39 215.80 153.79 216.14 152.09 C 216.87 149.69 219.37 148.62 221.40 147.53 C 274.54 122.70 329.83 102.85 385.46 84.41 C 388.08 83.60 391.11 82.20 391.16 78.99 C 391.06 73.84 387.46 69.67 384.09 66.10 Z" />
<path fill="#a6a6a6" opacity="1.00" d=" M 178.33 169.32 C 179.77 168.67 181.39 168.18 182.87 169.01 C 182.74 172.46 179.80 174.82 177.88 177.41 C 175.81 177.06 174.09 178.46 172.27 179.19 C 154.01 187.60 135.37 195.43 115.88 200.56 C 107.05 202.83 98.22 205.46 89.06 205.91 C 84.65 206.37 80.23 206.03 75.81 206.08 C 73.63 205.29 71.50 204.35 69.34 203.49 L 70.65 202.52 C 79.52 203.21 88.49 202.39 97.09 200.10 C 125.48 193.75 152.29 182.03 178.33 169.32 Z" />
<path fill="#a6a6a6" opacity="1.00" d=" M 290.99 219.08 C 293.53 219.44 295.76 220.90 297.96 222.12 C 300.51 224.47 304.10 226.96 303.27 230.96 C 301.60 235.03 297.11 236.76 293.35 238.40 C 261.79 251.18 230.29 264.11 198.58 276.52 C 192.43 278.78 186.41 281.43 180.05 283.08 C 175.62 284.38 170.77 285.09 167.18 288.24 C 162.84 292.33 160.38 297.91 158.37 303.42 C 148.91 329.06 139.27 354.64 129.88 380.31 C 126.65 381.12 124.80 384.95 121.31 384.74 C 119.89 382.54 121.08 379.92 121.67 377.66 C 131.50 351.11 141.36 324.57 151.23 298.04 C 153.77 291.95 156.72 284.98 163.29 282.33 C 169.42 280.47 175.72 279.10 181.69 276.73 C 216.66 263.30 251.28 248.98 286.01 234.93 C 289.81 233.38 294.02 231.10 295.40 226.98 C 296.07 223.52 292.90 221.41 290.99 219.08 Z" />
<path fill="#a6a6a6" opacity="1.00" d=" M 104.20 290.15 C 107.52 290.41 110.78 289.68 114.05 289.30 C 116.58 289.49 116.05 293.15 115.11 294.68 C 111.56 292.92 107.57 292.33 104.20 290.15 Z" />
<path fill="#a6a6a6" opacity="1.00" d=" M 294.58 351.42 C 299.46 352.67 303.24 356.62 308.07 357.90 C 308.24 358.24 308.59 358.93 308.77 359.27 C 311.66 362.22 316.33 363.77 317.62 368.04 C 317.91 370.58 314.68 371.18 312.92 372.01 C 261.60 387.57 210.19 403.07 159.99 421.99 C 151.89 425.70 142.94 427.33 134.05 427.01 C 132.42 426.31 130.71 425.88 128.99 425.52 C 128.17 424.92 127.36 424.31 126.57 423.67 C 135.43 423.94 144.30 421.99 152.38 418.39 C 202.38 399.55 253.57 384.12 304.68 368.64 C 306.55 367.81 309.32 367.32 309.85 365.02 C 307.62 357.88 298.71 356.82 294.58 351.42 Z" />
<path fill="#a6a6a6" opacity="1.00" d=" M 113.21 419.17 C 116.30 417.83 118.82 420.94 121.41 422.12 C 117.15 423.95 117.30 429.80 113.07 431.39 C 110.15 429.82 106.87 429.04 103.99 427.39 C 109.59 428.38 108.69 420.47 113.21 419.17 Z" />
</g>
<g id="#4d4d4dff">
<path fill="#4d4d4d" opacity="1.00" d=" M 391.02 69.06 C 397.58 70.02 403.35 75.09 405.74 81.23 C 406.56 83.15 407.54 85.41 406.44 87.44 C 405.18 89.90 402.38 90.75 399.95 91.58 C 344.76 109.85 289.94 129.60 237.23 154.22 C 235.13 155.35 232.48 156.45 231.81 158.99 C 231.48 160.78 232.75 162.36 232.78 164.12 C 232.34 166.07 231.52 167.90 230.68 169.70 C 221.92 187.22 213.16 204.75 204.41 222.28 C 204.47 222.62 204.57 223.31 204.62 223.65 C 201.05 224.75 197.53 225.98 194.07 227.36 L 192.47 227.38 C 202.80 206.13 213.55 185.08 223.92 163.85 C 225.05 161.96 225.06 159.86 224.21 157.87 C 223.02 155.12 225.57 152.85 227.80 151.79 C 240.47 145.55 253.37 139.78 266.40 134.32 C 307.82 116.95 350.20 101.96 392.83 87.84 C 395.51 86.93 399.26 85.48 399.09 82.05 C 398.49 76.77 394.84 72.48 391.02 69.06 Z" />
<path fill="#4d4d4d" opacity="1.00" d=" M 172.27 179.19 C 174.09 178.46 175.81 177.06 177.88 177.41 C 174.65 180.78 172.30 184.84 169.78 188.73 L 169.06 187.84 C 165.37 189.08 161.89 190.87 158.26 192.26 C 141.11 199.37 123.27 204.86 105.07 208.53 C 95.39 209.79 84.72 210.94 75.81 206.08 C 80.23 206.03 84.65 206.37 89.06 205.91 C 98.22 205.46 107.05 202.83 115.88 200.56 C 135.37 195.43 154.01 187.60 172.27 179.19 Z" />
<path fill="#4d4d4d" opacity="1.00" d=" M 297.96 222.12 C 302.93 223.65 308.31 226.24 310.88 231.01 C 312.34 235.77 307.57 239.34 303.69 240.85 C 268.33 255.24 233.03 269.77 197.41 283.48 C 191.44 285.83 185.17 287.22 179.05 289.06 C 172.20 291.79 169.24 299.10 166.68 305.44 C 158.13 328.75 149.21 351.94 140.88 375.33 C 137.21 376.99 133.54 378.63 129.88 380.31 C 139.27 354.64 148.91 329.06 158.37 303.42 C 160.38 297.91 162.84 292.33 167.18 288.24 C 170.77 285.09 175.62 284.38 180.05 283.08 C 186.41 281.43 192.43 278.78 198.58 276.52 C 230.29 264.11 261.79 251.18 293.35 238.40 C 297.11 236.76 301.60 235.03 303.27 230.96 C 304.10 226.96 300.51 224.47 297.96 222.12 Z" />
<path fill="#4d4d4d" opacity="1.00" d=" M 308.77 359.27 C 311.44 358.80 313.32 361.28 315.53 362.36 C 319.23 365.16 324.35 367.26 325.63 372.16 C 322.91 375.52 318.26 376.18 314.37 377.48 C 265.54 392.23 216.69 407.15 168.91 425.09 C 161.08 428.46 152.55 430.27 144.03 430.53 C 140.54 430.20 136.76 429.39 134.05 427.01 C 142.94 427.33 151.89 425.70 159.99 421.99 C 210.19 403.07 261.60 387.57 312.92 372.01 C 314.68 371.18 317.91 370.58 317.62 368.04 C 316.33 363.77 311.66 362.22 308.77 359.27 Z" />
<path fill="#4d4d4d" opacity="1.00" d=" M 121.41 422.12 C 123.12 422.64 124.87 423.07 126.57 423.67 C 127.36 424.31 128.17 424.92 128.99 425.52 C 125.30 427.31 125.20 432.16 122.03 434.29 C 118.89 434.00 115.64 433.31 113.07 431.39 C 117.30 429.80 117.15 423.95 121.41 422.12 Z" />
</g>
</svg>
